<?xml version="1.0" encoding="utf-8"?>
<!-- Generator: Adobe Illustrator 23.0.1, SVG Export Plug-In . SVG Version: 6.00 Build 0)  -->
<svg version="1.1" id="Layer_1" xmlns="http://www.w3.org/2000/svg" xmlns:xlink="http://www.w3.org/1999/xlink" x="0px" y="0px"
	 viewBox="0 0 612 792" style="enable-background:new 0 0 612 792;" xml:space="preserve">
<style type="text/css">
	.st0{fill:#264DE4;}
	.st1{fill:#2965F1;}
	.st2{fill:#EBEBEB;}
	.st3{fill:#FFFFFF;}
</style>
<g>
	<path class="st0" d="M297.6,699.6L117,649.5L76.8,198H519l-40.3,451.3L297.6,699.6L297.6,699.6z"/>
	<path class="st1" d="M444.2,620.6L478.6,235H297.9v426.2L444.2,620.6L444.2,620.6z"/>
	<path class="st2" d="M169,402.4l4.9,55.4h123.9v-55.4L169,402.4L169,402.4z M159.1,290.3l5,55.4h133.8v-55.4H159.1L159.1,290.3z
		 M297.9,546.1l-0.2,0.1L236,529.5l-3.9-44.2h-55.6l7.8,87l113.4,31.5l0.2-0.1L297.9,546.1L297.9,546.1z"/>
	<path d="M180.8,75.4h67v28h-39v28h39v28h-67.1L180.8,75.4L180.8,75.4z M261.3,75.4h67v24.4h-39v4.8h39v56.1h-67v-25.6h39v-4.8h-39
		V75.4L261.3,75.4z M341.7,75.4h67v24.4h-39v4.8h39v56.1h-67v-25.6h39.1v-4.8h-39L341.7,75.4L341.7,75.4z"/>
	<path class="st3" d="M426.3,402.4l10-112.1H297.7v55.4h78l-5,56.7h-73v55.4h68.1l-6.4,71.8l-61.8,16.7v57.6l113.5-31.5l0.8-9.4
		l13-145.7L426.3,402.4L426.3,402.4z"/>
</g>
</svg>
